# xmcd
#
# Track frame offsets:
#	300
#	8094
#	25336
#	42673
#	49231
#	84164
#	120526
#	123142
#	136761
#	161795
#	165848
#	180111
#	189166
#	199846
#	219229
#	231810
#
# Disc length: 3289 seconds
#
# Revision: 2
# Processed by: cddbd v1.5.2PL0 Copyright (c) Steve Scherf et al.
# Submitted via: EasyCDDAExtractor 15.3.0.1
#
DISCID=c00cd510
DTITLE=Lissette and Chucho - Acompañame - En Vivo - CD 1
DYEAR=2010
DGENRE=Latin
TTITLE0=Lissette and Chucho - Obertura
TTITLE1=Lissette and Chucho - Solo Una Cancion
TTITLE2=Lissette and Chucho - La Amistad
TTITLE3=Lissette and Chucho - Bienvenida
TTITLE4=Chucho - Medley De Exitos
TTITLE5=Lissette - Medley De Exitos
TTITLE6=Lissette - Presentacion
TTITLE7=Lissette and Chucho - Fugitiva, Cabecita Loca
TTITLE8=Lissette and Chucho - Fue La Musica
TTITLE9=Lissette and Chucho - Presentacion
TTITLE10=Lissette - Alma Mia
TTITLE11=Chucho - Matrimonio
TTITLE12=Lissette and Chucho - De La Casa Al Trabajo
TTITLE13=Lissette and Chucho - Cosas De Casa
TTITLE14=Chucho - Cruce La Frontera
TTITLE15=Lissette and Chucho - Que Tristeza
EXTD=
EXTT0=
EXTT1=
EXTT2=
EXTT3=
EXTT4=
EXTT5=
EXTT6=
EXTT7=
EXTT8=
EXTT9=
EXTT10=
EXTT11=
EXTT12=
EXTT13=
EXTT14=
EXTT15=
PLAYORDER=
